<?xml version="1.0" encoding="utf-8" standalone="no"?>
<!DOCTYPE svg PUBLIC "-//W3C//DTD SVG 1.1//EN"
  "http://www.w3.org/Graphics/SVG/1.1/DTD/svg11.dtd">
<!-- Created with matplotlib (http://matplotlib.org/) -->
<svg height="316pt" version="1.1" viewBox="0 0 460 316" width="460pt" xmlns="http://www.w3.org/2000/svg" xmlns:xlink="http://www.w3.org/1999/xlink">
 <defs>
  <style type="text/css">
*{stroke-linecap:butt;stroke-linejoin:round;stroke-miterlimit:100000;}
  </style>
 </defs>
 <g id="figure_1">
  <g id="patch_1">
   <path d="M 0 316.8 
L 460.8 316.8 
L 460.8 0 
L 0 0 
z
" style="fill:#ffffff;"/>
  </g>
  <g id="axes_1">
   <g id="patch_2">
    <path d="M 69.8915 285.696 
L 429.696 285.696 
L 429.696 41.904 
L 69.8915 41.904 
z
" style="fill:#ffffff;"/>
   </g>
   <g id="matplotlib.axis_1"/>
   <g id="matplotlib.axis_2">
    <g id="ytick_1">
     <g id="line2d_1">
      <defs>
       <path d="M 0 0 
L 0 0 
" id="m5bc4020121" style="stroke:#262626;stroke-width:0.8;"/>
      </defs>
      <g>
       <use style="fill:#262626;stroke:#262626;stroke-width:0.8;" x="69.8915" xlink:href="#m5bc4020121" y="253.897043478"/>
      </g>
     </g>
     <g id="text_1">
      <!-- 0.0 -->
      <defs>
       <path d="M 4.15625 35.296875 
Q 4.15625 48 6.765625 55.734375 
Q 9.375 63.484375 14.515625 67.671875 
Q 19.671875 71.875 27.484375 71.875 
Q 33.25 71.875 37.59375 69.546875 
Q 41.9375 67.234375 44.765625 62.859375 
Q 47.609375 58.5 49.21875 52.21875 
Q 50.828125 45.953125 50.828125 35.296875 
Q 50.828125 22.703125 48.234375 14.96875 
Q 45.65625 7.234375 40.5 3 
Q 35.359375 -1.21875 27.484375 -1.21875 
Q 17.140625 -1.21875 11.234375 6.203125 
Q 4.15625 15.140625 4.15625 35.296875 
M 13.1875 35.296875 
Q 13.1875 17.671875 17.3125 11.828125 
Q 21.4375 6 27.484375 6 
Q 33.546875 6 37.671875 11.859375 
Q 41.796875 17.71875 41.796875 35.296875 
Q 41.796875 52.984375 37.671875 58.78125 
Q 33.546875 64.59375 27.390625 64.59375 
Q 21.34375 64.59375 17.71875 59.46875 
Q 13.1875 52.9375 13.1875 35.296875 
" id="ArialMT-30"/>
       <path d="M 9.078125 0 
L 9.078125 10.015625 
L 19.09375 10.015625 
L 19.09375 0 
z
" id="ArialMT-2e"/>
      </defs>
      <g style="fill:#262626;" transform="translate(30.9315 260.101418478)scale(0.24 -0.24)">
       <use xlink:href="#ArialMT-30"/>
       <use x="55.615234375" xlink:href="#ArialMT-2e"/>
       <use x="83.3984375" xlink:href="#ArialMT-30"/>
      </g>
     </g>
    </g>
    <g id="ytick_2">
     <g id="line2d_2">
      <g>
       <use style="fill:#262626;stroke:#262626;stroke-width:0.8;" x="69.8915" xlink:href="#m5bc4020121" y="211.498434783"/>
      </g>
     </g>
     <g id="text_2">
      <!-- 0.2 -->
      <defs>
       <path d="M 50.34375 8.453125 
L 50.34375 0 
L 3.03125 0 
Q 2.9375 3.171875 4.046875 6.109375 
Q 5.859375 10.9375 9.828125 15.625 
Q 13.8125 20.3125 21.34375 26.46875 
Q 33.015625 36.03125 37.109375 41.625 
Q 41.21875 47.21875 41.21875 52.203125 
Q 41.21875 57.421875 37.46875 61 
Q 33.734375 64.59375 27.734375 64.59375 
Q 21.390625 64.59375 17.578125 60.78125 
Q 13.765625 56.984375 13.71875 50.25 
L 4.6875 51.171875 
Q 5.609375 61.28125 11.65625 66.578125 
Q 17.71875 71.875 27.9375 71.875 
Q 38.234375 71.875 44.234375 66.15625 
Q 50.25 60.453125 50.25 52 
Q 50.25 47.703125 48.484375 43.546875 
Q 46.734375 39.40625 42.65625 34.8125 
Q 38.578125 30.21875 29.109375 22.21875 
Q 21.1875 15.578125 18.9375 13.203125 
Q 16.703125 10.84375 15.234375 8.453125 
z
" id="ArialMT-32"/>
      </defs>
      <g style="fill:#262626;" transform="translate(30.9315 217.702809783)scale(0.24 -0.24)">
       <use xlink:href="#ArialMT-30"/>
       <use x="55.615234375" xlink:href="#ArialMT-2e"/>
       <use x="83.3984375" xlink:href="#ArialMT-32"/>
      </g>
     </g>
    </g>
    <g id="ytick_3">
     <g id="line2d_3">
      <g>
       <use style="fill:#262626;stroke:#262626;stroke-width:0.8;" x="69.8915" xlink:href="#m5bc4020121" y="169.099826087"/>
      </g>
     </g>
     <g id="text_3">
      <!-- 0.4 -->
      <defs>
       <path d="M 32.328125 0 
L 32.328125 17.140625 
L 1.265625 17.140625 
L 1.265625 25.203125 
L 33.9375 71.578125 
L 41.109375 71.578125 
L 41.109375 25.203125 
L 50.78125 25.203125 
L 50.78125 17.140625 
L 41.109375 17.140625 
L 41.109375 0 
z
M 32.328125 25.203125 
L 32.328125 57.46875 
L 9.90625 25.203125 
z
" id="ArialMT-34"/>
      </defs>
      <g style="fill:#262626;" transform="translate(30.9315 175.304201087)scale(0.24 -0.24)">
       <use xlink:href="#ArialMT-30"/>
       <use x="55.615234375" xlink:href="#ArialMT-2e"/>
       <use x="83.3984375" xlink:href="#ArialMT-34"/>
      </g>
     </g>
    </g>
    <g id="ytick_4">
     <g id="line2d_4">
      <g>
       <use style="fill:#262626;stroke:#262626;stroke-width:0.8;" x="69.8915" xlink:href="#m5bc4020121" y="126.701217391"/>
      </g>
     </g>
     <g id="text_4">
      <!-- 0.6 -->
      <defs>
       <path d="M 49.75 54.046875 
L 41.015625 53.375 
Q 39.84375 58.546875 37.703125 60.890625 
Q 34.125 64.65625 28.90625 64.65625 
Q 24.703125 64.65625 21.53125 62.3125 
Q 17.390625 59.28125 14.984375 53.46875 
Q 12.59375 47.65625 12.5 36.921875 
Q 15.671875 41.75 20.265625 44.09375 
Q 24.859375 46.4375 29.890625 46.4375 
Q 38.671875 46.4375 44.84375 39.96875 
Q 51.03125 33.5 51.03125 23.25 
Q 51.03125 16.5 48.125 10.71875 
Q 45.21875 4.9375 40.140625 1.859375 
Q 35.0625 -1.21875 28.609375 -1.21875 
Q 17.625 -1.21875 10.6875 6.859375 
Q 3.765625 14.9375 3.765625 33.5 
Q 3.765625 54.25 11.421875 63.671875 
Q 18.109375 71.875 29.4375 71.875 
Q 37.890625 71.875 43.28125 67.140625 
Q 48.6875 62.40625 49.75 54.046875 
M 13.875 23.1875 
Q 13.875 18.65625 15.796875 14.5 
Q 17.71875 10.359375 21.1875 8.171875 
Q 24.65625 6 28.46875 6 
Q 34.03125 6 38.03125 10.484375 
Q 42.046875 14.984375 42.046875 22.703125 
Q 42.046875 30.125 38.078125 34.390625 
Q 34.125 38.671875 28.125 38.671875 
Q 22.171875 38.671875 18.015625 34.390625 
Q 13.875 30.125 13.875 23.1875 
" id="ArialMT-36"/>
      </defs>
      <g style="fill:#262626;" transform="translate(30.9315 132.905592391)scale(0.24 -0.24)">
       <use xlink:href="#ArialMT-30"/>
       <use x="55.615234375" xlink:href="#ArialMT-2e"/>
       <use x="83.3984375" xlink:href="#ArialMT-36"/>
      </g>
     </g>
    </g>
    <g id="ytick_5">
     <g id="line2d_5">
      <g>
       <use style="fill:#262626;stroke:#262626;stroke-width:0.8;" x="69.8915" xlink:href="#m5bc4020121" y="84.3026086957"/>
      </g>
     </g>
     <g id="text_5">
      <!-- 0.8 -->
      <defs>
       <path d="M 17.671875 38.8125 
Q 12.203125 40.828125 9.5625 44.53125 
Q 6.9375 48.25 6.9375 53.421875 
Q 6.9375 61.234375 12.546875 66.546875 
Q 18.171875 71.875 27.484375 71.875 
Q 36.859375 71.875 42.578125 66.421875 
Q 48.296875 60.984375 48.296875 53.171875 
Q 48.296875 48.1875 45.671875 44.5 
Q 43.0625 40.828125 37.75 38.8125 
Q 44.34375 36.671875 47.78125 31.875 
Q 51.21875 27.09375 51.21875 20.453125 
Q 51.21875 11.28125 44.71875 5.03125 
Q 38.234375 -1.21875 27.640625 -1.21875 
Q 17.046875 -1.21875 10.546875 5.046875 
Q 4.046875 11.328125 4.046875 20.703125 
Q 4.046875 27.6875 7.59375 32.390625 
Q 11.140625 37.109375 17.671875 38.8125 
M 15.921875 53.71875 
Q 15.921875 48.640625 19.1875 45.40625 
Q 22.46875 42.1875 27.6875 42.1875 
Q 32.765625 42.1875 36.015625 45.375 
Q 39.265625 48.578125 39.265625 53.21875 
Q 39.265625 58.0625 35.90625 61.359375 
Q 32.5625 64.65625 27.59375 64.65625 
Q 22.5625 64.65625 19.234375 61.421875 
Q 15.921875 58.203125 15.921875 53.71875 
M 13.09375 20.65625 
Q 13.09375 16.890625 14.875 13.375 
Q 16.65625 9.859375 20.171875 7.921875 
Q 23.6875 6 27.734375 6 
Q 34.03125 6 38.125 10.046875 
Q 42.234375 14.109375 42.234375 20.359375 
Q 42.234375 26.703125 38.015625 30.859375 
Q 33.796875 35.015625 27.4375 35.015625 
Q 21.234375 35.015625 17.15625 30.90625 
Q 13.09375 26.8125 13.09375 20.65625 
" id="ArialMT-38"/>
      </defs>
      <g style="fill:#262626;" transform="translate(30.9315 90.5069836957)scale(0.24 -0.24)">
       <use xlink:href="#ArialMT-30"/>
       <use x="55.615234375" xlink:href="#ArialMT-2e"/>
       <use x="83.3984375" xlink:href="#ArialMT-38"/>
      </g>
     </g>
    </g>
    <g id="ytick_6">
     <g id="text_6">
      <!-- 1.0 -->
      <defs>
       <path d="M 37.25 0 
L 28.46875 0 
L 28.46875 56 
Q 25.296875 52.984375 20.140625 49.953125 
Q 14.984375 46.921875 10.890625 45.40625 
L 10.890625 53.90625 
Q 18.265625 57.375 23.78125 62.296875 
Q 29.296875 67.234375 31.59375 71.875 
L 37.25 71.875 
z
" id="ArialMT-31"/>
      </defs>
      <g style="fill:#262626;" transform="translate(30.9315 48.108375)scale(0.24 -0.24)">
       <use xlink:href="#ArialMT-31"/>
       <use x="55.615234375" xlink:href="#ArialMT-2e"/>
       <use x="83.3984375" xlink:href="#ArialMT-30"/>
      </g>
     </g>
    </g>
   </g>
   <g id="line2d_6">
    <path clip-path="url(#p0854ec3d11)" d="M 72.140278 244.506478 
L 74.389056 243.81203 
L 76.637834 242.041303 
L 78.886613 244.42727 
L 81.135391 253.253241 
L 83.384169 247.894797 
L 85.632947 248.848798 
L 87.881725 258.488034 
L 90.130503 260.507586 
L 92.379281 256.130307 
L 94.628059 249.797734 
L 96.876838 247.722188 
L 99.125616 252.976133 
L 101.374394 263.411624 
L 103.623172 261.042435 
L 105.87195 266.223015 
L 108.120728 253.717966 
L 110.369506 257.53476 
L 112.618284 270.852026 
L 114.867063 264.964567 
L 117.115841 260.662247 
L 119.364619 265.084573 
L 121.613397 260.84237 
L 123.862175 260.82483 
L 126.110953 265.019958 
L 128.359731 278.792474 
L 130.608509 258.615755 
L 132.857288 251.543912 
L 135.106066 243.755431 
L 137.354844 241.048353 
L 139.603622 236.168177 
L 141.8524 229.104622 
L 144.101178 222.9193 
L 146.349956 221.561024 
L 148.598734 226.204481 
L 150.847513 227.789541 
L 153.096291 220.530348 
L 155.345069 224.683301 
L 157.593847 223.644383 
L 159.842625 218.811604 
L 162.091403 224.554983 
L 164.340181 227.588373 
L 166.588959 225.033315 
L 168.837738 226.74709 
L 171.086516 230.512831 
L 173.335294 229.110309 
L 175.584072 230.100166 
L 177.83285 230.721602 
L 180.081628 226.257022 
L 182.330406 223.27439 
L 184.579184 233.023667 
L 186.827963 230.287732 
L 189.076741 242.479818 
L 191.325519 240.248745 
L 193.574297 248.951567 
L 195.823075 241.834552 
L 198.071853 245.501406 
L 200.320631 244.928324 
L 202.569409 246.470988 
L 204.818188 253.70791 
L 207.066966 244.972686 
L 209.315744 241.013484 
L 211.564522 241.538251 
L 213.8133 237.776246 
L 216.062078 240.026444 
L 218.310856 244.197053 
L 220.559634 244.503167 
L 222.808413 250.981982 
L 225.057191 250.54916 
L 227.305969 248.791985 
L 229.554747 252.064047 
L 231.803525 254.82566 
L 234.052303 252.813871 
L 236.301081 252.125249 
L 238.549859 248.890751 
L 240.798638 258.386639 
L 243.047416 253.458416 
L 245.296194 246.830396 
L 247.544972 254.645292 
L 249.79375 253.159196 
L 252.042528 252.769325 
L 254.291306 264.137344 
L 256.540084 258.985473 
L 258.788863 257.999435 
L 261.037641 259.002727 
L 263.286419 253.986154 
L 265.535197 258.378859 
L 267.783975 261.164485 
L 270.032753 265.909361 
L 272.281531 255.825934 
L 274.530309 268.554448 
L 276.779088 268.229065 
L 279.027866 267.483285 
L 281.276644 246.580846 
L 283.525422 246.609897 
L 285.7742 245.715168 
L 288.022978 249.343437 
L 290.271756 254.374455 
L 292.520534 255.598475 
L 294.769313 261.877624 
L 297.018091 257.424263 
L 299.266869 262.692985 
L 301.515647 265.461525 
L 303.764425 259.947452 
L 306.013203 257.373692 
L 308.261981 258.939491 
L 310.510759 258.890407 
L 312.759538 259.441971 
L 315.008316 255.250215 
L 317.257094 263.460426 
L 319.505872 264.758811 
L 321.75465 263.121408 
L 324.003428 259.183158 
L 326.252206 264.598021 
L 328.500984 272.213734 
L 330.749763 264.121747 
L 332.998541 257.165205 
L 335.247319 259.321699 
L 337.496097 261.927673 
L 341.993653 263.203878 
L 344.242431 254.134693 
L 346.491209 253.239936 
L 348.739988 244.860668 
L 350.988766 250.238352 
L 353.237544 250.037107 
L 355.486322 254.315642 
L 357.7351 255.225641 
L 359.983878 255.687638 
L 362.232656 251.543202 
L 364.481434 250.207331 
L 366.730213 261.770147 
L 368.978991 253.481303 
L 371.227769 249.424928 
L 373.476547 244.787659 
L 375.725325 253.229184 
L 377.974103 253.466537 
L 380.222881 252.109758 
L 382.471659 261.142939 
L 384.720438 251.537415 
L 386.969216 253.733759 
L 389.217994 249.751266 
L 391.466772 252.893408 
L 393.71555 250.138295 
L 395.964328 257.621594 
L 398.213106 258.127953 
L 400.461884 256.100242 
L 402.710663 256.537637 
L 404.959441 256.713799 
L 404.959441 256.713799 
" style="fill:none;stroke:#4c72b0;stroke-linecap:round;stroke-width:4.0;"/>
   </g>
   <g id="patch_3">
    <path d="M 69.8915 285.696 
L 69.8915 41.904 
" style="fill:none;stroke:#262626;stroke-linecap:square;stroke-linejoin:miter;stroke-width:1.25;"/>
   </g>
  </g>
 </g>
 <defs>
  <clipPath id="p0854ec3d11">
   <rect height="243.792" width="359.8045" x="69.8915" y="41.904"/>
  </clipPath>
 </defs>
</svg>
